<svg width="160" height="33" viewBox="0 0 160 33" fill="none" xmlns="http://www.w3.org/2000/svg">
<g clip-path="url(#clip0_1406_36)">
<path d="M159.716 24.7494V28.7089H156.395C152.851 28.5975 150.957 26.6836 150.957 23.0887V14.0456H148.638V10.5722H150.957V6.68359H155.858V10.5317H159.605V13.995H155.858V22.6026C155.858 23.7671 156.091 24.6988 157.884 24.6988L159.716 24.7494Z" fill="white"/>
<path d="M129.104 19.676V19.4127C129.051 18.248 129.228 17.0843 129.626 15.9882C130.023 14.8922 130.633 13.8854 131.421 13.0256C132.208 12.1657 133.157 11.4697 134.214 10.9775C135.271 10.4852 136.415 10.2064 137.58 10.157C137.813 10.157 138.056 10.157 138.289 10.157C142.916 10.157 146.977 12.8507 146.977 19.2709V20.638H134.116C134.248 23.595 135.848 25.2658 138.542 25.2658C140.861 25.2658 141.944 24.2532 142.258 22.7747H146.886C146.319 26.6329 143.24 28.7798 138.37 28.7798C133.023 28.7393 129.104 25.357 129.104 19.676ZM142.157 17.5393C141.985 14.8456 140.628 13.5494 138.268 13.5494C135.909 13.5494 134.552 15.0076 134.218 17.5393H142.157Z" fill="white"/>
<path d="M109.094 19.676V19.4127C109.041 18.2496 109.217 17.0875 109.614 15.9927C110.01 14.898 110.618 13.8921 111.403 13.0325C112.189 12.1729 113.136 11.4765 114.19 10.9831C115.245 10.4897 116.386 10.209 117.549 10.157C117.782 10.157 118.025 10.157 118.258 10.157C122.886 10.157 126.957 12.8507 126.957 19.2709V20.638H114.106C114.238 23.595 115.838 25.2658 118.532 25.2658C120.851 25.2658 121.934 24.2532 122.248 22.7747H126.876C126.299 26.6329 123.22 28.7798 118.349 28.7798C113.013 28.7393 109.094 25.357 109.094 19.676ZM122.147 17.5393C121.975 14.8456 120.618 13.5494 118.258 13.5494C115.899 13.5494 114.582 15.0481 114.208 17.5291L122.147 17.5393Z" fill="white"/>
<path d="M81.0127 10.5317H86.1975L89.3671 22.5419L92.8405 10.5317H96.8912L100.03 22.5419L103.372 10.5317H108.122L102.491 28.3748H97.6304L94.5924 17.1748L91.3418 28.3748H86.4203L81.0127 10.5317Z" fill="white"/>
<path d="M64.5367 22.7646H69.1645C69.3772 24.3747 70.1772 25.2962 72.3038 25.2962C74.2076 25.2962 75.0886 24.5772 75.0886 23.3519C75.0886 22.1266 74.0759 21.6101 71.4835 21.2456C66.7342 20.5266 64.9012 19.1595 64.9012 15.6759C64.9012 11.9595 68.3038 10.1165 71.9899 10.1165C75.9493 10.1165 78.9367 11.5544 79.362 15.6557H74.7949C74.7658 15.3386 74.6741 15.0305 74.5252 14.7491C74.3762 14.4676 74.173 14.2185 73.9273 14.0161C73.6815 13.8136 73.3981 13.6619 73.0934 13.5696C72.7886 13.4774 72.4686 13.4464 72.1519 13.4785H72C70.4 13.4785 69.4683 14.2278 69.4683 15.3215C69.4683 16.4152 70.3291 16.8911 72.9417 17.2658C77.3772 17.9342 79.8582 19.0582 79.8582 22.8759C79.8582 26.6937 77.0531 28.7392 72.3544 28.7392C67.6557 28.7392 64.6683 26.6228 64.5367 22.7646Z" fill="white"/>
<path d="M44.8709 10.5316H49.7722V13.3569C50.3246 12.3199 51.1632 11.4633 52.1882 10.8888C53.2132 10.3144 54.3816 10.0463 55.5545 10.1164C59.0279 10.1164 61.5494 12.2329 61.5494 17.0632V28.4151H56.7089V17.7721C56.7089 15.3518 55.7671 14.1974 53.5798 14.1974C53.1175 14.1572 52.6517 14.2086 52.2094 14.3488C51.767 14.489 51.3567 14.7152 51.0019 15.0145C50.6472 15.3137 50.3551 15.68 50.1423 16.0924C49.9295 16.5048 49.8003 16.9552 49.762 17.4177C49.7367 17.633 49.7367 17.8505 49.762 18.0658V28.3746H44.8709V10.5316Z" fill="white"/>
<path d="M35.4126 6.04551C35.3949 5.55683 35.5225 5.07387 35.7794 4.65778C36.0363 4.24168 36.4108 3.91116 36.8556 3.70807C37.3005 3.50497 37.7956 3.43842 38.2782 3.51686C38.7609 3.59529 39.2094 3.81518 39.5671 4.14868C39.9247 4.48218 40.1753 4.9143 40.2872 5.39032C40.3991 5.86634 40.3673 6.36487 40.1957 6.82277C40.0241 7.28068 39.7205 7.67737 39.3233 7.96264C38.9261 8.2479 38.4533 8.4089 37.9645 8.42525H37.8734C37.5701 8.44445 37.2659 8.40358 36.9784 8.30496C36.6909 8.20635 36.4258 8.05195 36.1981 7.85061C35.9704 7.64927 35.7847 7.40495 35.6516 7.13168C35.5186 6.85841 35.4408 6.56157 35.4228 6.25817C35.4144 6.18761 35.411 6.11654 35.4126 6.04551ZM35.4126 10.5316H40.3645V28.3746H35.4329L35.4126 10.5316Z" fill="white"/>
<path d="M16.7494 3.98999H32.4051V8.31404H22.2785V14.7647H30.2988V18.9267H22.2684V28.3748H16.7494V3.98999Z" fill="white"/>
<path d="M7.30127 11.9696C7.30127 13.4987 7.30127 15.362 5.19494 16.1215C7.3519 16.8608 7.30127 18.4304 7.30127 20.0709V26.1468C7.30127 27.3013 7.76709 28 8.59747 28.1722C8.77993 28.2337 8.97216 28.2612 9.16456 28.2532H11.1899V32.3038H7.8481C4.28355 32.3038 2.31899 30.2785 2.31899 26.5215V19.3316C2.29371 18.9625 2.13095 18.6163 1.86286 18.3613C1.59476 18.1064 1.24081 17.9612 0.870886 17.9544H0V14.4H0.870886C1.24819 14.395 1.60909 14.245 1.87872 13.981C2.14835 13.717 2.30601 13.3594 2.31899 12.9823V5.69114C2.31899 1.99494 4.24304 0 7.8481 0H11.2203V3.98987H9.19494C9.00231 3.99043 8.81095 4.02118 8.62785 4.08101C7.79747 4.29367 7.33165 4.98228 7.33165 6.10633L7.30127 11.9696Z" fill="white"/>
</g>
<defs>
<clipPath id="clip0_1406_36">
<rect width="160" height="32.4051" fill="white"/>
</clipPath>
</defs>
</svg>
