<svg width="214" height="133" viewBox="0 0 214 133" fill="none" xmlns="http://www.w3.org/2000/svg">
<path fill-rule="evenodd" clip-rule="evenodd" d="M199.77 1.7973H13.318C7.18857 1.7973 2.21967 5.82069 2.21967 10.7838V122.216C2.21967 127.179 7.18857 131.203 13.318 131.203H199.77C205.9 131.203 210.869 127.179 210.869 122.216V10.7838C210.869 5.82068 205.9 1.7973 199.77 1.7973ZM13.318 0C5.96268 0 0 4.82807 0 10.7838V122.216C0 128.172 5.96268 133 13.318 133H199.77C207.126 133 213.088 128.172 213.088 122.216V10.7838C213.088 4.82806 207.126 0 199.77 0H13.318Z" fill="url(#paint0_linear_1_940)"/>
<path d="M17.2295 21.5061C17.2295 19.5266 18.9653 17.9219 21.1065 17.9219H164.986C167.127 17.9219 168.863 19.5266 168.863 21.5061C168.863 23.4857 167.127 25.0904 164.986 25.0904H21.1065C18.9653 25.0904 17.2295 23.4857 17.2295 21.5061Z" fill="url(#paint1_linear_1_940)"/>
<path d="M17.2295 39.4261C17.2295 37.4465 18.9653 35.8418 21.1065 35.8418H67.6303C69.7715 35.8418 71.5073 37.4465 71.5073 39.4261C71.5073 41.4056 69.7715 43.0103 67.6303 43.0103H21.1065C18.9653 43.0103 17.2295 41.4056 17.2295 39.4261Z" fill="url(#paint2_linear_1_940)"/>
<path d="M78.4014 39.4261C78.4014 37.4465 80.1372 35.8418 82.2784 35.8418H100.371C102.512 35.8418 104.248 37.4465 104.248 39.4261C104.248 41.4056 102.512 43.0103 100.371 43.0103H82.2783C80.1371 43.0103 78.4014 41.4056 78.4014 39.4261Z" fill="url(#paint3_linear_1_940)"/>
<path d="M17.2295 111.112C17.2295 109.132 18.9653 107.527 21.1065 107.527H67.6303C69.7715 107.527 71.5073 109.132 71.5073 111.112C71.5073 113.091 69.7715 114.696 67.6303 114.696H21.1065C18.9653 114.696 17.2295 113.091 17.2295 111.112Z" fill="url(#paint4_linear_1_940)"/>
<path d="M78.4014 111.112C78.4014 109.132 80.1372 107.527 82.2784 107.527H100.371C102.512 107.527 104.248 109.132 104.248 111.112C104.248 113.091 102.512 114.696 100.371 114.696H82.2783C80.1371 114.696 78.4014 113.091 78.4014 111.112Z" fill="url(#paint5_linear_1_940)"/>
<path d="M48.2451 75.2698C48.2451 73.2903 49.9809 71.6855 52.1221 71.6855H65.0454C67.1866 71.6855 68.9224 73.2903 68.9224 75.2698C68.9224 77.2494 67.1866 78.8541 65.0454 78.8541H52.1221C49.9809 78.8541 48.2451 77.2494 48.2451 75.2698Z" fill="url(#paint6_linear_1_940)"/>
<path d="M76.6777 75.2698C76.6777 73.2903 78.4135 71.6855 80.5547 71.6855H135.694C137.835 71.6855 139.571 73.2903 139.571 75.2698C139.571 77.2494 137.835 78.8541 135.694 78.8541H80.5547C78.4135 78.8541 76.6777 77.2494 76.6777 75.2698Z" fill="url(#paint7_linear_1_940)"/>
<path d="M17.2295 75.2698C17.2295 73.2903 18.9653 71.6855 21.1065 71.6855H39.1991C41.3403 71.6855 43.0761 73.2903 43.0761 75.2698C43.0761 77.2494 41.3403 78.8541 39.1991 78.8541H21.1065C18.9653 78.8541 17.2295 77.2494 17.2295 75.2698Z" fill="url(#paint8_linear_1_940)"/>
<path d="M17.2295 57.3479C17.2295 55.3684 18.9653 53.7637 21.1065 53.7637H83.9998C86.141 53.7637 87.8768 55.3684 87.8768 57.3479C87.8768 59.3275 86.141 60.9322 83.9998 60.9322H21.1065C18.9653 60.9322 17.2295 59.3275 17.2295 57.3479Z" fill="url(#paint9_linear_1_940)"/>
<path d="M93.9072 57.3479C93.9072 55.3684 95.643 53.7637 97.7842 53.7637H127.077C129.218 53.7637 130.954 55.3684 130.954 57.3479C130.954 59.3275 129.218 60.9322 127.077 60.9322H97.7842C95.643 60.9322 93.9072 59.3275 93.9072 57.3479Z" fill="url(#paint10_linear_1_940)"/>
<path d="M17.2295 93.1917C17.2295 91.2122 18.9653 89.6074 21.1065 89.6074H83.9998C86.141 89.6074 87.8768 91.2122 87.8768 93.1917C87.8768 95.1712 86.141 96.776 83.9998 96.776H21.1065C18.9653 96.776 17.2295 95.1712 17.2295 93.1917Z" fill="url(#paint11_linear_1_940)"/>
<defs>
<linearGradient id="paint0_linear_1_940" x1="106.544" y1="2.46508e-06" x2="182.545" y2="341.572" gradientUnits="userSpaceOnUse">
<stop stop-color="white" stop-opacity="0.17"/>
<stop offset="1" stop-opacity="0"/>
</linearGradient>
<linearGradient id="paint1_linear_1_940" x1="93.0461" y1="17.9219" x2="101.242" y2="61.5739" gradientUnits="userSpaceOnUse">
<stop stop-color="white" stop-opacity="0.56"/>
<stop offset="1" stop-color="#C4C4C4" stop-opacity="0"/>
</linearGradient>
<linearGradient id="paint2_linear_1_940" x1="44.3684" y1="35.8418" x2="62.9577" y2="71.282" gradientUnits="userSpaceOnUse">
<stop stop-color="#F9C746" stop-opacity="0.52"/>
<stop offset="1" stop-color="#C4C4C4" stop-opacity="0"/>
</linearGradient>
<linearGradient id="paint3_linear_1_940" x1="91.3247" y1="35.8418" x2="113.815" y2="56.2595" gradientUnits="userSpaceOnUse">
<stop stop-color="#84EBE5" stop-opacity="0.62"/>
<stop offset="1" stop-color="#C4C4C4" stop-opacity="0"/>
</linearGradient>
<linearGradient id="paint4_linear_1_940" x1="44.3684" y1="107.527" x2="62.9577" y2="142.968" gradientUnits="userSpaceOnUse">
<stop stop-color="white" stop-opacity="0.56"/>
<stop offset="1" stop-color="#C4C4C4" stop-opacity="0"/>
</linearGradient>
<linearGradient id="paint5_linear_1_940" x1="91.3247" y1="107.527" x2="113.815" y2="127.945" gradientUnits="userSpaceOnUse">
<stop stop-color="#F47D9E"/>
<stop offset="1" stop-color="#C4C4C4" stop-opacity="0"/>
</linearGradient>
<linearGradient id="paint6_linear_1_940" x1="58.5837" y1="71.6855" x2="80.0708" y2="87.2912" gradientUnits="userSpaceOnUse">
<stop stop-color="#F2C87D"/>
<stop offset="1" stop-color="#C4C4C4" stop-opacity="0"/>
</linearGradient>
<linearGradient id="paint7_linear_1_940" x1="108.124" y1="71.6855" x2="125.102" y2="109.191" gradientUnits="userSpaceOnUse">
<stop stop-color="white" stop-opacity="0.62"/>
<stop offset="1" stop-color="#C4C4C4" stop-opacity="0"/>
</linearGradient>
<linearGradient id="paint8_linear_1_940" x1="24.1219" y1="69.8934" x2="63.6632" y2="75.9327" gradientUnits="userSpaceOnUse">
<stop stop-color="#F37D9D"/>
<stop offset="1" stop-color="#C4C4C4" stop-opacity="0"/>
</linearGradient>
<linearGradient id="paint9_linear_1_940" x1="52.5531" y1="53.7637" x2="68.2202" y2="92.6408" gradientUnits="userSpaceOnUse">
<stop stop-color="white" stop-opacity="0.58"/>
<stop offset="1" stop-color="#C4C4C4" stop-opacity="0"/>
</linearGradient>
<linearGradient id="paint10_linear_1_940" x1="112.431" y1="53.7637" x2="134.265" y2="82.1752" gradientUnits="userSpaceOnUse">
<stop stop-color="white" stop-opacity="0.45"/>
<stop offset="1" stop-color="#C4C4C4" stop-opacity="0"/>
</linearGradient>
<linearGradient id="paint11_linear_1_940" x1="52.5531" y1="89.6074" x2="68.2202" y2="128.485" gradientUnits="userSpaceOnUse">
<stop stop-color="#70D1E7"/>
<stop offset="1" stop-color="#C4C4C4" stop-opacity="0"/>
</linearGradient>
</defs>
</svg>
