<svg width="137" height="32" viewBox="0 0 137 32" fill="none" xmlns="http://www.w3.org/2000/svg">
<g clip-path="url(#clip0_1_925)">
<path d="M39.74 9.89956H43.1688V23.7669H39.74V9.89956ZM44.5361 18.5507C44.5361 15.1158 46.6724 13.057 49.8768 13.057C53.0814 13.057 55.2177 15.1158 55.2177 18.5507C55.2177 21.9855 53.1561 24.0656 49.8768 24.0656C46.5976 24.0656 44.5361 22.0602 44.5361 18.5507ZM51.821 18.5507C51.821 16.6626 51.0839 15.5532 49.9089 15.5532C48.7339 15.5532 48.0076 16.6199 48.0076 18.5507C48.0076 20.4814 48.7339 21.5375 49.9089 21.5375C51.0839 21.5375 51.8423 20.4815 51.8423 18.5613L51.821 18.5507ZM56.585 24.4816H59.8963C60.047 24.8377 60.3103 25.1346 60.6459 25.3272C60.9814 25.5199 61.371 25.5975 61.7549 25.5483C63.0688 25.5483 63.7523 24.8443 63.7523 23.7989V21.8788H63.763C63.4801 22.4767 63.0225 22.975 62.4506 23.3082C61.8786 23.6415 61.219 23.7939 60.5586 23.7455C58.0484 23.7455 56.382 21.8362 56.382 18.5507C56.382 15.2651 57.9736 13.217 60.6547 13.217C61.332 13.1808 62.0039 13.3553 62.5778 13.7164C63.1518 14.0775 63.5994 14.6074 63.8592 15.2331H63.763V13.3024H67.1599V23.6922C67.1599 26.199 64.938 27.7671 61.6694 27.7671C58.7 27.7564 56.7986 26.4017 56.6063 24.4923L56.585 24.4816ZM63.763 18.5507C63.763 16.8759 62.994 15.8198 61.7762 15.8198C60.5586 15.8198 59.8108 16.8866 59.8108 18.5507C59.8108 20.2148 60.5479 21.1961 61.7762 21.1961C63.0047 21.1961 63.763 20.2894 63.763 18.5507ZM68.5164 18.5507C68.5164 15.1158 70.6527 13.057 73.8572 13.057C77.0618 13.057 79.1981 15.1158 79.1981 18.5507C79.1981 21.9855 77.1258 24.0656 73.8572 24.0656C70.5887 24.0656 68.5377 22.0602 68.5377 18.5507H68.5164ZM75.8013 18.5507C75.8013 16.6626 75.0536 15.5532 73.8893 15.5532C72.725 15.5532 71.9879 16.6199 71.9879 18.5507C71.9879 20.4814 72.7143 21.5375 73.8893 21.5375C75.0643 21.5375 75.8227 20.4815 75.8227 18.5613L75.8013 18.5507ZM80.5867 10.7743C80.5718 10.4255 80.6617 10.0802 80.8449 9.78285C81.0281 9.4855 81.2962 9.24971 81.6147 9.10579C81.9332 8.96188 82.2875 8.9164 82.6321 8.97518C82.9767 9.03405 83.2958 9.19447 83.5483 9.4359C83.8009 9.67733 83.9753 9.98866 84.0491 10.3299C84.123 10.6711 84.093 11.0266 83.9628 11.3507C83.8328 11.6747 83.6085 11.9524 83.319 12.1482C83.0296 12.3439 82.6881 12.4487 82.3385 12.449C82.1151 12.4547 81.8928 12.416 81.6844 12.3352C81.4761 12.2543 81.286 12.133 81.125 11.9782C80.964 11.8234 80.8354 11.6382 80.7466 11.4334C80.6579 11.2285 80.6108 11.0081 80.6081 10.785L80.5867 10.7743ZM80.5867 13.2917H84.0583V23.8095H80.6401L80.5867 13.2917ZM96.545 18.5507C96.545 21.9748 95.0071 23.9589 92.3901 23.9589C91.72 24.0002 91.0534 23.8351 90.4801 23.486C89.9069 23.137 89.4557 22.6207 89.1855 22.0068H89.1215V27.1911H85.6922V13.3237H89.0996V15.2011H89.1645C89.4246 14.5753 89.8724 14.0448 90.4456 13.6821C91.0188 13.3194 91.6906 13.1422 92.3682 13.1744C95.0601 13.153 96.6089 15.1265 96.6089 18.5613L96.545 18.5507ZM93.0525 18.5507C93.0525 16.8866 92.2722 15.8092 91.0651 15.8092C89.8581 15.8092 89.0996 16.8759 89.0895 18.5507C89.0786 20.2254 89.8581 21.2815 91.0651 21.2815C92.2722 21.2815 93.1165 20.2894 93.1165 18.5613L93.0525 18.5507ZM102.399 13.0463C105.272 13.0463 107.056 14.4011 107.077 16.5772H103.947C103.947 15.8198 103.318 15.3505 102.378 15.3505C101.437 15.3505 100.989 15.7132 100.989 16.2572C100.989 16.8012 101.384 16.9719 102.175 17.1319L104.375 17.5799C106.511 18.028 107.366 18.8814 107.366 20.4708C107.366 22.6042 105.389 24.0549 102.452 24.0549C99.5147 24.0549 97.6022 22.6468 97.4642 20.5028H100.786C100.882 21.2815 101.501 21.7402 102.505 21.7402C103.51 21.7402 103.979 21.4202 103.979 20.8548C103.979 20.2894 103.659 20.1934 102.836 20.0228L100.85 19.6067C98.7882 19.1694 97.7091 18.092 97.7091 16.4812C97.7739 14.3904 99.5677 13.057 102.463 13.057L102.399 13.0463ZM118.848 23.7989H115.527V21.8255H115.463C115.277 22.4837 114.872 23.0591 114.314 23.4565C113.757 23.8541 113.08 24.05 112.397 24.0122C111.88 24.0291 111.367 23.9366 110.888 23.7411C110.41 23.5455 109.979 23.2511 109.623 22.8774C109.267 22.5037 108.995 22.0591 108.823 21.5726C108.65 21.0861 108.584 20.5689 108.626 20.0548V13.3024H112.055V19.3187C112.055 20.5561 112.707 21.2282 113.775 21.2282C114.026 21.2262 114.272 21.1707 114.5 21.0652C114.727 20.9597 114.929 20.8068 115.092 20.6167C115.255 20.4266 115.375 20.2038 115.445 19.9633C115.514 19.7228 115.531 19.4703 115.495 19.2227V13.3024H118.913L118.848 23.7989ZM120.504 13.2917H123.837V15.3185H123.911C124.096 14.6692 124.49 14.0992 125.033 13.6978C125.576 13.2963 126.238 13.086 126.913 13.0997C127.591 13.0409 128.267 13.2367 128.809 13.649C129.35 14.0613 129.718 14.6604 129.84 15.3291H129.99C130.203 14.6569 130.633 14.0738 131.213 13.6706C131.792 13.2674 132.489 13.0667 133.194 13.0997C133.663 13.0819 134.13 13.1631 134.565 13.3382C135.001 13.5132 135.395 13.778 135.719 14.1154C136.045 14.4527 136.296 14.8549 136.455 15.2958C136.615 15.7365 136.679 16.2059 136.645 16.6732V23.8095H133.194V17.5479C133.194 16.4812 132.692 15.8838 131.72 15.8838C131.504 15.8803 131.29 15.9234 131.093 16.0101C130.896 16.0968 130.719 16.2251 130.576 16.3862C130.433 16.5473 130.327 16.7374 130.264 16.9434C130.202 17.1495 130.185 17.3666 130.214 17.5799V23.8095H126.945V17.5159C126.945 16.4492 126.421 15.8838 125.482 15.8838C125.264 15.8821 125.049 15.9269 124.849 16.0154C124.65 16.1037 124.472 16.2335 124.328 16.3962C124.183 16.5589 124.075 16.7506 124.011 16.9584C123.946 17.1663 123.927 17.3855 123.954 17.6013V23.8095H120.526L120.504 13.2917Z" fill="#282938"/>
<path d="M32.9581 10.8063C32.9582 8.68319 32.3162 6.60957 31.1162 4.85701C29.9162 3.10445 28.2142 1.75469 26.233 0.984508C24.2518 0.214331 22.0839 0.059655 20.0133 0.540737C17.9425 1.02182 16.0657 2.11623 14.6283 3.68062H1.29761V31.778H29.4438V18.6467C30.5485 17.6599 31.4325 16.4517 32.0381 15.1007C32.6436 13.7497 32.9571 12.2865 32.9581 10.8063ZM27.5425 10.8063C27.5446 11.8236 27.2445 12.8188 26.68 13.6658C26.1156 14.5127 25.3122 15.1733 24.3716 15.5641C23.4311 15.9549 22.3954 16.0583 21.396 15.861C20.3966 15.6639 19.4782 15.1751 18.7571 14.4564C18.036 13.7378 17.5446 12.8216 17.3451 11.824C17.1456 10.8263 17.2469 9.79199 17.6362 8.85186C18.0256 7.91172 18.6855 7.10808 19.5325 6.54264C20.3793 5.97721 21.3751 5.67539 22.3939 5.67538C23.7576 5.67538 25.0655 6.21562 26.0307 7.17754C26.996 8.13947 27.5397 9.44453 27.5425 10.8063ZM24.0282 26.3698H6.71322V9.08891H11.99C11.888 9.65582 11.8344 10.2303 11.8297 10.8063C11.8326 13.6034 12.9465 16.2852 14.927 18.2631C16.9076 20.2409 19.593 21.3533 22.3939 21.3562C22.9415 21.3532 23.488 21.3069 24.0282 21.2175V26.3698Z" fill="#282938"/>
</g>
<defs>
<clipPath id="clip0_1_925">
<rect width="136.364" height="32" fill="white" transform="translate(0.635498)"/>
</clipPath>
</defs>
</svg>
